<svg width="1920" height="1080" viewBox="0 0 1920 1080" xmlns="http://www.w3.org/2000/svg">
  <defs>
    <!-- Clean gradient backgrounds -->
    <linearGradient id="mainBg" x1="0%" y1="0%" x2="100%" y2="100%">
      <stop offset="0%" style="stop-color:#f1f5f9;stop-opacity:1" />
      <stop offset="50%" style="stop-color:#e2e8f0;stop-opacity:1" />
      <stop offset="100%" style="stop-color:#cbd5e1;stop-opacity:1" />
    </linearGradient>
    
    <radialGradient id="accentGlow" cx="20%" cy="30%" r="40%">
      <stop offset="0%" style="stop-color:#3b82f6;stop-opacity:0.1" />
      <stop offset="100%" style="stop-color:#3b82f6;stop-opacity:0" />
    </radialGradient>
    
    <radialGradient id="accentGlow2" cx="80%" cy="70%" r="35%">
      <stop offset="0%" style="stop-color:#8b5cf6;stop-opacity:0.08" />
      <stop offset="100%" style="stop-color:#8b5cf6;stop-opacity:0" />
    </radialGradient>
    
    <!-- Subtle patterns -->
    <pattern id="dots" x="0" y="0" width="40" height="40" patternUnits="userSpaceOnUse">
      <circle cx="20" cy="20" r="1.5" fill="#94a3b8" opacity="0.2"/>
    </pattern>
    
    <pattern id="grid" x="0" y="0" width="80" height="80" patternUnits="userSpaceOnUse">
      <path d="M 80 0 L 0 0 0 80" fill="none" stroke="#cbd5e1" stroke-width="0.5" opacity="0.3"/>
    </pattern>
  </defs>
  
  <!-- Base background -->
  <rect width="1920" height="1080" fill="url(#mainBg)"/>
  
  <!-- Accent glows -->
  <rect width="1920" height="1080" fill="url(#accentGlow)"/>
  <rect width="1920" height="1080" fill="url(#accentGlow2)"/>
  
  <!-- Subtle pattern overlay -->
  <rect width="1920" height="1080" fill="url(#dots)"/>
  <rect width="1920" height="1080" fill="url(#grid)" opacity="0.3"/>
  
  <!-- Floating geometric elements -->
  <g opacity="0.4">
    <!-- Large circles -->
    <circle cx="200" cy="200" r="60" fill="#3b82f6" opacity="0.1"/>
    <circle cx="1700" cy="300" r="80" fill="#8b5cf6" opacity="0.08"/>
    <circle cx="300" cy="800" r="50" fill="#10b981" opacity="0.1"/>
    <circle cx="1600" cy="800" r="70" fill="#f59e0b" opacity="0.08"/>
    
    <!-- Floating rectangles -->
    <rect x="1400" y="150" width="100" height="60" rx="30" fill="#3b82f6" opacity="0.06"/>
    <rect x="100" y="600" width="80" height="80" rx="20" fill="#8b5cf6" opacity="0.08"/>
    <rect x="1500" y="600" width="120" height="40" rx="20" fill="#10b981" opacity="0.06"/>
    
    <!-- Triangular shapes -->
    <polygon points="800,100 850,50 900,100" fill="#f59e0b" opacity="0.08"/>
    <polygon points="1200,900 1250,850 1300,900" fill="#3b82f6" opacity="0.06"/>
  </g>
  
  <!-- Subtle productivity icons -->
  <g opacity="0.15" fill="#64748b">
    <!-- Chart icon -->
    <g transform="translate(1600, 200)">
      <rect x="0" y="20" width="8" height="30" rx="2"/>
      <rect x="12" y="10" width="8" height="40" rx="2"/>
      <rect x="24" y="25" width="8" height="25" rx="2"/>
      <rect x="36" y="5" width="8" height="45" rx="2"/>
    </g>
    
    <!-- Target icon -->
    <g transform="translate(200, 600)">
      <circle cx="20" cy="20" r="18" fill="none" stroke="#64748b" stroke-width="2"/>
      <circle cx="20" cy="20" r="12" fill="none" stroke="#64748b" stroke-width="2"/>
      <circle cx="20" cy="20" r="6" fill="none" stroke="#64748b" stroke-width="2"/>
      <circle cx="20" cy="20" r="2" fill="#64748b"/>
    </g>
    
    <!-- Trophy icon -->
    <g transform="translate(1400, 700)">
      <path d="M15 5 Q10 5 10 10 L10 15 Q10 20 15 20 L25 20 Q30 20 30 15 L30 10 Q30 5 25 5 Z"/>
      <rect x="18" y="20" width="4" height="8" rx="2"/>
      <rect x="12" y="28" width="16" height="4" rx="2"/>
    </g>
  </g>
  
  <!-- Animated elements -->
  <g opacity="0.3">
    <!-- Floating particles -->
    <circle cx="400" cy="300" r="3" fill="#3b82f6">
      <animate attributeName="opacity" values="0.3;0.6;0.3" dur="4s" repeatCount="indefinite"/>
      <animateTransform attributeName="transform" type="translate" values="0,0; 20,-20; 0,0" dur="6s" repeatCount="indefinite"/>
    </circle>
    
    <circle cx="1200" cy="400" r="2" fill="#8b5cf6">
      <animate attributeName="opacity" values="0.2;0.5;0.2" dur="3s" repeatCount="indefinite"/>
      <animateTransform attributeName="transform" type="translate" values="0,0; -15,15; 0,0" dur="5s" repeatCount="indefinite"/>
    </circle>
    
    <circle cx="800" cy="700" r="2.5" fill="#10b981">
      <animate attributeName="opacity" values="0.25;0.55;0.25" dur="3.5s" repeatCount="indefinite"/>
      <animateTransform attributeName="transform" type="translate" values="0,0; 10,25; 0,0" dur="7s" repeatCount="indefinite"/>
    </circle>
    
    <!-- Subtle progress indicators -->
    <g transform="translate(1700, 500)">
      <rect x="0" y="0" width="60" height="4" rx="2" fill="#e2e8f0"/>
      <rect x="0" y="0" width="40" height="4" rx="2" fill="#3b82f6">
        <animate attributeName="width" values="40;50;40" dur="4s" repeatCount="indefinite"/>
      </rect>
    </g>
    
    <g transform="translate(100, 400)">
      <rect x="0" y="0" width="50" height="3" rx="1.5" fill="#e2e8f0"/>
      <rect x="0" y="0" width="35" height="3" rx="1.5" fill="#10b981">
        <animate attributeName="width" values="35;42;35" dur="3s" repeatCount="indefinite"/>
      </rect>
    </g>
  </g>
  
  <!-- Corner accent elements -->
  <g opacity="0.1">
    <!-- Top left corner -->
    <path d="M0 0 L200 0 Q0 0 0 200 Z" fill="#3b82f6"/>
    
    <!-- Bottom right corner -->
    <path d="M1920 1080 L1720 1080 Q1920 1080 1920 880 Z" fill="#8b5cf6"/>
  </g>
</svg> 